<svg width="60" height="80" viewBox="0 0 60 80" fill="none" xmlns="http://www.w3.org/2000/svg">
<g clip-path="url(#clip0_119_42)">
<mask id="path-1-inside-1_119_42" fill="white">
<path fill-rule="evenodd" clip-rule="evenodd" d="M20.5669 39C6.9379 43.0583 -3 55.6846 -3 70.6321C-3 88.8575 11.7746 103.632 30 103.632C48.2254 103.632 63 88.8575 63 70.6321C63 55.6846 53.0621 43.0583 39.4331 39C37.0883 41.5408 33.73 43.1321 30 43.1321C26.27 43.1321 22.9117 41.5408 20.5669 39Z"/>
</mask>
<path d="M20.5669 39L21.3017 38.3218L20.8789 37.8637L20.2815 38.0416L20.5669 39ZM39.4331 39L39.7185 38.0416L39.1211 37.8637L38.6983 38.3218L39.4331 39ZM-2 70.6321C-2 56.1391 7.63558 43.894 20.8523 39.9584L20.2815 38.0416C6.24023 42.2227 -4 55.2302 -4 70.6321H-2ZM30 102.632C12.3269 102.632 -2 88.3052 -2 70.6321H-4C-4 89.4098 11.2223 104.632 30 104.632V102.632ZM62 70.6321C62 88.3052 47.6731 102.632 30 102.632V104.632C48.7777 104.632 64 89.4098 64 70.6321H62ZM39.1477 39.9584C52.3644 43.894 62 56.1391 62 70.6321H64C64 55.2302 53.7598 42.2227 39.7185 38.0416L39.1477 39.9584ZM38.6983 38.3218C36.5348 40.666 33.4394 42.1321 30 42.1321V44.1321C34.0206 44.1321 37.6418 42.4155 40.168 39.6782L38.6983 38.3218ZM30 42.1321C26.5606 42.1321 23.4652 40.666 21.3017 38.3218L19.832 39.6782C22.3582 42.4155 25.9794 44.1321 30 44.1321V42.1321Z" fill="black" mask="url(#path-1-inside-1_119_42)"/>
<circle cx="30" cy="31" r="12.5" stroke="black"/>
</g>
<defs>
<clipPath id="clip0_119_42">
<rect width="60" height="80" fill="white"/>
</clipPath>
</defs>
</svg>
