<svg width="30" height="40" viewBox="0 0 30 40" fill="none" xmlns="http://www.w3.org/2000/svg">
<g clip-path="url(#clip0_119_42)">
<circle cx="15" cy="17" r="6.5" stroke="black"/>
<mask id="path-2-inside-1_119_42" fill="white">
<path fill-rule="evenodd" clip-rule="evenodd" d="M9.85465 20.7461C2.42067 22.9598 -3 29.8469 -3 38C-3 47.9411 5.05887 56 15 56C24.9411 56 33 47.9411 33 38C33 29.8469 27.5793 22.9598 20.1453 20.7461C18.8664 22.132 17.0345 23 15 23C12.9655 23 11.1336 22.132 9.85465 20.7461Z"/>
</mask>
<path d="M9.85465 20.7461L10.5895 20.0679L10.1667 19.6098L9.56926 19.7877L9.85465 20.7461ZM20.1453 20.7461L20.4307 19.7877L19.8333 19.6098L19.4105 20.0679L20.1453 20.7461ZM-2 38C-2 30.3013 3.11835 23.7954 10.14 21.7046L9.56926 19.7877C1.723 22.1241 -4 29.3924 -4 38H-2ZM15 55C5.61116 55 -2 47.3888 -2 38H-4C-4 48.4934 4.50659 57 15 57V55ZM32 38C32 47.3888 24.3888 55 15 55V57C25.4934 57 34 48.4934 34 38H32ZM19.86 21.7046C26.8816 23.7954 32 30.3013 32 38H34C34 29.3924 28.277 22.1241 20.4307 19.7877L19.86 21.7046ZM19.4105 20.0679C18.3128 21.2573 16.7439 22 15 22V24C17.3252 24 19.4199 23.0067 20.8802 21.4243L19.4105 20.0679ZM15 22C13.2561 22 11.6872 21.2573 10.5895 20.0679L9.11978 21.4243C10.5801 23.0067 12.6748 24 15 24V22Z" fill="black" mask="url(#path-2-inside-1_119_42)"/>
</g>
<defs>
<clipPath id="clip0_119_42">
<rect width="30" height="40" fill="white"/>
</clipPath>
</defs>
</svg>
